inDegrees=yes
name=ik_lifting_orientations
DataType=double
version=3
OpenSimVersion=4.5-2024-01-10-34fd6af
endheader
time	pelvis_tilt	pelvis_list	pelvis_rotation	pelvis_tx	pelvis_ty	pelvis_tz	hip_flexion_r	hip_adduction_r	hip_rotation_r	knee_angle_r	knee_angle_r_beta	ankle_angle_r	subtalar_angle_r	mtp_angle_r	hip_flexion_l	hip_adduction_l	hip_rotation_l	knee_angle_l	knee_angle_l_beta	ankle_angle_l	subtalar_angle_l	mtp_angle_l	lumbar_extension	lumbar_bending	lumbar_rotation	arm_flex_r	arm_add_r	arm_rot_r	elbow_flex_r	pro_sup_r	wrist_flex_r	wrist_dev_r	arm_flex_l	arm_add_l	arm_rot_l	elbow_flex_l	pro_sup_l	wrist_flex_l	wrist_dev_l
1.65	-0.003124591212195024	0.002190957615524306	2.432992652987851	0	0.9399999999999999	0	44.28227249935015	-10.00935847061779	0	59.97069930533853	1.046686157601634	-5.001233617333799	0	0	44.28227249935015	-10.00935847061779	0	59.97069930533853	1.046686157601634	-5.001233617333799	0	0	-0.0001934414484246121	0.002497358946097828	-0.004399122085825337	1.277720897210449	-7.011366554291243	-8.969094618097229	89.29056061369965	45.00645322073198	0	0	0	-12.95047158301875	0	75.06440000944576	45.00645322073198	0	0
1.66	-0.004093771636538764	-0.0009278138500128508	2.434970525090964	0	0.9399999999999999	0	44.28264468533648	-10.00934765203088	0	59.97071166536177	1.046686373324735	-5.001232132948547	0	0	44.28264468533648	-10.00934765203088	0	59.97071166536177	1.046686373324735	-5.001232132948547	0	0	-0.001360077487106348	0.002258750163952575	-0.004233317606724068	1.277958590528194	-7.010885115246269	-8.970276048496661	89.2950422606489	45.00644642358949	0	0	0	-12.95105954877366	0	75.06436670687199	45.00644642358949	0	0
1.69	-0.004286318654351641	0.000158315262613313	2.434100818164134	0	0.9399999999999999	0	44.28338723621604	-10.00931861645362	0	59.97073579025384	1.046686794383533	-5.001227442791852	0	0	44.28338723621604	-10.00931861645362	0	59.97073579025384	1.046686794383533	-5.001227442791852	0	0	-0.0008843973312784063	0.003434345204349682	-0.005306528410014648	1.280212587112186	-7.011730877227604	-8.96854988410924	89.29068840165465	45.00642987301101	0	0	0	-12.95217724145023	0	75.06430026659081	45.00642987301101	0	0
1.72	-0.004255493183107876	-0.001309077420547417	2.435191527506847	0	0.9399999999999999	0	44.2837947842862	-10.00930576298072	0	59.97074925759113	1.04668702943291	-5.001225581250173	0	0	44.2837947842862	-10.00930576298072	0	59.97074925759113	1.04668702943291	-5.001225581250173	0	0	-0.001804249286780573	0.003247577409229671	-0.005165083960427965	1.279581172832745	-7.01139339645546	-8.969408418263804	89.29363234021308	45.00642202937772	0	0	0	-12.9528139083893	0	75.06426380013082	45.00642202937772	0	0
1.74	-0.004348782633270158	-0.000622999120902265	2.434654425060804	0	0.9399999999999999	0	44.28443300952389	-10.0092819850611	0	59.97077007877728	1.046687392831163	-5.001221821453109	0	0	44.28443300952389	-10.0092819850611	0	59.97077007877728	1.046687392831163	-5.001221821453109	0	0	-0.001642210260371382	0.003979169446744505	-0.005847149180618622	1.280939813915848	-7.011821693609503	-8.968531929642596	89.29152305315533	45.00640827940847	0	0	0	-12.95378352857582	0	75.06420669416077	45.00640827940847	0	0
1.75	-0.004111438090707965	-0.001267744145561322	2.435181303672617	0	0.9399999999999999	0	44.28490178441656	-10.00926613309819	0	59.97078549549431	1.046687661903635	-5.001219431681021	0	0	44.28490178441656	-10.00926613309819	0	59.97078549549431	1.046687661903635	-5.001219431681021	0	0	-0.002165032403253688	0.003892371006040635	-0.005781973001599787	1.280413767539904	-7.011765247421326	-8.968838053127669	89.29276317306872	45.00639883045713	0	0	0	-12.95450805806553	0	75.0641647495422	45.00639883045713	0	0
1.76	-0.004005610322515411	-0.001059280801232247	2.435036845973251	0	0.9399999999999999	0	44.28545489782916	-10.00924637130641	0	59.97080360695581	1.04668797800827	-5.001216366796479	0	0	44.28545489782916	-10.00924637130641	0	59.97080360695581	1.04668797800827	-5.001216366796479	0	0	-0.002239756506016898	0.004192176311078898	-0.00605792933242387	1.280776651181548	-7.011941641367826	-8.968547764653001	89.29220706358949	45.00638725672371	0	0	0	-12.95535500614679	0	75.06411525883335	45.00638725672371	0	0
1.78	-0.003822646872560628	-0.001263430023147453	2.435213351464158	0	0.9399999999999999	0	44.28595720644626	-10.00922888076028	0	59.97082009180856	1.046688265723227	-5.001213687497466	0	0	44.28595720644626	-10.00922888076028	0	59.97082009180856	1.046688265723227	-5.001213687497466	0	0	-0.002471665646962407	0.004213929610831686	-0.006079073204288815	1.280557114819359	-7.012004526344679	-8.968560640296436	89.292493451564	45.00637693139272	0	0	0	-12.95612778703406	0	75.06407031384308	45.00637693139272	0	0
1.79	-0.003714026816911151	-0.001278573688114051	2.435239627586567	0	0.9399999999999999	0	44.28647261697805	-10.00921081164934	0	59.97083699736832	1.046688560780907	-5.001210909165507	0	0	44.28647261697805	-10.00921081164934	0	59.97083699736832	1.046688560780907	-5.001210909165507	0	0	-0.002589906482266581	0.004313389146109962	-0.006165794264085381	1.28056786623943	-7.012072190753579	-8.968500693032416	89.29250114116195	45.00636628863951	0	0	0	-12.95691988087581	0	75.06402419656615	45.00636628863951	0	0
1.8	-0.003607774268851385	-0.001323270228160595	2.435283659589258	0	0.9399999999999999	0	44.28698175484151	-10.00919297832629	0	59.97085370002836	1.046688852297319	-5.001208167232121	0	0	44.28698175484151	-10.00919297832629	0	59.97085370002836	1.046688852297319	-5.001208167232121	0	0	-0.00269073534293078	0.004369897482698685	-0.006212664303122038	1.280512096362724	-7.012140250834164	-8.968447686140093	89.29250373859594	45.00635578324852	0	0	0	-12.95770258766763	0	75.06397864054135	45.00635578324852	0	0
1.82	-0.003529049122945691	-0.00137750707885058	2.435333422642184	0	0.9399999999999999	0	44.2874849714163	-10.00917542559249	0	59.97087021456647	1.046689140530383	-5.001205473112716	0	0	44.2874849714163	-10.00917542559249	0	59.97087021456647	1.046689140530383	-5.001205473112716	0	0	-0.002779417943884941	0.004405007969349026	-0.006238277162756473	1.280449413727723	-7.012175991066582	-8.968439412682182	89.29259329731104	45.00634543079843	0	0	0	-12.95847685357099	0	75.06393361431425	45.00634543079843	0	0
1.83	-0.003468215536536115	-0.001392692392551376	2.435349906850451	0	0.9399999999999999	0	44.28798990549998	-10.00915778098207	0	59.97088678397068	1.046689429721042	-5.001202761506214	0	0	44.28798990549998	-10.00915778098207	0	59.97088678397068	1.046689429721042	-5.001202761506214	0	0	-0.002833099357962212	0.004448531947143875	-0.006271374587833475	1.280428390498348	-7.012219461792146	-8.968403862296345	89.29258325446649	45.00633503135345	0	0	0	-12.95925362405065	0	75.06388843441717	45.00633503135345	0	0
1.84	-0.003417147915049842	-0.001427306143253905	2.435379991116836	0	0.9399999999999999	0	44.28848985072363	-10.00914036353159	0	59.97090319456745	1.046689716139988	-5.00120008795755	0	0	44.28848985072363	-10.00914036353159	0	59.97090319456745	1.046689716139988	-5.00120008795755	0	0	-0.00288432430737321	0.0044697173274979	-0.006283924873859927	1.280379789712847	-7.012246183188662	-8.968395786087703	89.29263018081186	45.0063247571788	0	0	0	-12.96002322970613	0	75.06384370089253	45.0063247571788	0	0
1.85	-0.003380065871594535	-0.00144296846500891	2.435394185885544	0	0.9399999999999999	0	44.28898977251676	-10.00912295263013	0	59.97091960555525	1.046690002565758	-5.001197415006971	0	0	44.28898977251676	-10.00912295263013	0	59.97091960555525	1.046690002565758	-5.001197415006971	0	0	-0.002918002840226733	0.004493904449401794	-0.006299363941321805	1.280356171453891	-7.012270248950741	-8.968382293470235	89.29264544021807	45.00631448693453	0	0	0	-12.96079294053796	0	75.0637989694621	45.00631448693453	0	0
1.86	-0.003349351908280788	-0.001459225024032732	2.43540782440985	0	0.9399999999999999	0	44.28948792318279	-10.00910562480008	0	59.97093596088246	1.046690288020068	-5.001194755611874	0	0	44.28948792318279	-10.00910562480008	0	59.97093596088246	1.046690288020068	-5.001194755611874	0	0	-0.002944701882463181	0.00451066982330411	-0.006308459730334201	1.280329231164883	-7.012290020404159	-8.968372984314747	89.29266110733327	45.00630426283776	0	0	0	-12.96156018789103	0	75.06375439650014	45.00630426283776	0	0
1.89	-0.02385658441891191	0.001022918958922003	2.427380522894486	0	0.9399999999999999	0	44.28967936565782	-10.00909705669993	0	59.97094213876485	1.046690395844457	-5.001193289054656	0	0	44.28967936565782	-10.00909705669993	0	59.97094213876485	1.046690395844457	-5.001193289054656	0	0	0.04056874777149619	0.0006215380457314693	0.01330834350597651	1.26505017213117	-7.109940984205936	-8.824613406719161	88.14736616788335	45.00629957027307	0	0	0	-12.96184151151452	0	75.06373726729865	45.00629957027307	0	0
1.92	-0.01783403639716947	0.002459785782692154	2.427050985674492	0	0.9399999999999999	0	44.29218956842799	-10.00899249619065	0	59.9710235791618	1.046691817247528	-5.001175895087174	0	0	44.29218956842799	-10.00899249619065	0	59.9710235791618	1.046691817247528	-5.001175895087174	0	0	0.03390038831281909	0.005754236689031135	0.005591192191570902	1.277017400266171	-7.115038859251592	-8.81181733852954	88.12164211522227	45.00624112603056	0	0	0	-12.96558225953674	0	75.06351266663223	45.00624112603056	0	0
1.94	-0.006525147138954622	-0.005192284130025448	2.434068884357301	0	0.9399999999999999	0	44.29289839207316	-10.00896705347444	0	59.97104681879907	1.046692222855715	-5.001171940082329	0	0	44.29289839207316	-10.00896705347444	0	59.97104681879907	1.046692222855715	-5.001171940082329	0	0	0.009386502966201105	0.004346363242587729	-0.0008972151556446951	1.283773458270405	-7.110083553913855	-8.815254290666905	88.14123433519015	45.00622624980742	0	0	0	-12.96666802584618	0	75.06344924357283	45.00622624980742	0	0
1.95	-0.0104347234880065	-0.003262543366994332	2.435013416404142	0	0.9399999999999999	0	44.29379498272201	-10.00893609241621	0	59.9710762536663	1.046692736591063	-5.00116722457143	0	0	44.29379498272201	-10.00893609241621	0	59.9710762536663	1.046692736591063	-5.00116722457143	0	0	0.006286269708721145	0.006346282700466201	-0.002203462387273016	1.292280496643325	-7.107574681634556	-8.815592340882999	88.14593511875849	45.00620791682067	0	0	0	-12.96804902360677	0	75.06336901949332	45.00620791682067	0	0
1.96	-0.004736904048887426	-0.002500400373036645	2.435532236860654	0	0.9399999999999999	0	44.29529987601565	-10.00887400908984	0	59.97112506108865	1.046693588441282	-5.001156938270721	0	0	44.29529987601565	-10.00887400908984	0	59.97112506108865	1.046693588441282	-5.001156938270721	0	0	0.002481243441116413	0.004497813141258879	-0.002695499825440861	1.292077376615249	-7.110844517996593	-8.810877023202682	88.13784093942094	45.00617311673827	0	0	0	-12.97029530770323	0	75.06323436885054	45.00617311673827	0	0
1.97	-0.004914168891200879	-0.003916044030495506	2.432592422601294	0	0.9399999999999999	0	44.29633773198165	-10.00883629788588	0	59.97115905218387	1.04669418169781	-5.001151026050655	0	0	44.29633773198165	-10.00883629788588	0	59.97115905218387	1.04669418169781	-5.001151026050655	0	0	0.002960949864850015	0.003641692695467972	-0.006574636430171008	1.298633151652631	-7.111911944989487	-8.812089099768365	88.13718611191744	45.0061511688844	0	0	0	-12.97188235357182	0	75.06314150523076	45.0061511688844	0	0
